<svg width="24" height="24" viewBox="0 0 24 24" fill="none" xmlns="http://www.w3.org/2000/svg">
  <path d="M22.5 12.25c0-1.43-.88-2.67-2.19-3.34.15-.42.24-.86.24-1.33C20.55 4.85 18.2 2.5 15.47 2.5c-1.4 0-2.67.58-3.58 1.51C10.8 3.58 9.53 3 8.13 3 5.4 3 3.05 5.35 3.05 8.08c0 .47.09.91.24 1.33C1.98 9.75 1.1 10.99 1.1 12.42c0 1.43.88 2.67 2.19 3.34-.15.42-.24.86-.24 1.33 0 2.73 2.35 5.08 5.08 5.08 1.4 0 2.67-.58 3.58-1.51 1.09.43 2.36 1.01 3.76 1.01 2.73 0 5.08-2.35 5.08-5.08 0-.47-.09-.91-.24-1.33 1.31-.67 2.19-1.91 2.19-3.34z" fill="#00FF90"/>
  <path d="M12 4L15.09 8.26L20 9L16 13.14L17.18 19.02L12 16.77L6.82 19.02L8 13.14L4 9L8.91 8.26L12 4Z" fill="#0B0B0B"/>
</svg>
