<svg width="24" height="24" viewBox="0 0 24 24" fill="none" xmlns="http://www.w3.org/2000/svg">
  <path d="M19.321 5.562a5.124 5.124 0 0 1-.443-.258 6.228 6.228 0 0 1-1.137-.966c-.849-.849-1.457-1.958-1.457-3.338h-2.66v16.157c0 2.407-1.942 4.35-4.35 4.35-2.407 0-4.35-1.943-4.35-4.35 0-2.408 1.943-4.35 4.35-4.35.239 0 .473.019.7.056V9.993c-.224-.032-.454-.049-.7-.049-4.583 0-8.29 3.707-8.29 8.29 0 4.583 3.707 8.29 8.29 8.29 4.583 0 8.29-3.707 8.29-8.29V9.327a10.155 10.155 0 0 0 5.943 1.9v-3.94a6.23 6.23 0 0 1-4.186-1.725z" fill="#FF44CC"/>
</svg>
